# xmcd
#
# Track frame offsets:
# 150
# 11875
# 25544
# 35914
# 46505
# 56691
# 67911
# 77771
# 88070
# 99404
# 111215
# 122517
# 134174
# 145277
# 156376
# 167266
# 177553
# 189412
# 201022
# 211950
# 222220
# 235419
#
# Disc length: 3290 seconds
#
#
# Revision: 0
# Processed by: cddbd v1.4PL0 Copyright (c) Steve Scherf et al.
# Submitted via: FreeRIP 2.30 
#
DISCID=360cd816
DTITLE=PATSY CLINE - WALKING AFTER MIDNIGHT
DYEAR=2000
DGENRE=Country
TTITLE0=WALKING AFTER MIDNIGHT
TTITLE1=A CHURCH A COURTROOM, THEN GOODBYE
TTITLE2=LOVIESICK BLUES
TTITLE3=HONKY TONK MERRY GO ROUND
TTITLE4=THREE CIGARETTES IN AN ASHTRAY
TTITLE5=LONELY STREET
TTITLE6=TURN THE CARD SLOWLY
TTITLE7=WALKIN DREAM
TTITLE8=THE HEART THAT YOU BREAK MAY BE YOUR OWN
TTITLE9=IF I COULD ONLY STAY ASLEEP
TTITLE10=CRY NOT FOR ME
TTITLE11=IN CARE OF THE BLUES
TTITLE12=DON'T EVER LEAVE
TTITLE13=A STRANGER IN MY ARMS
TTITLE14=I CRIED ALL THE WAY TO THE ALTAR
TTITLE15=TOO MANY SECRETS
TTITLE16=TODAY, TOMORROW AND FOREVER
TTITLE17=PICK ME UP ON YOUR WAY DOWN
TTITLE18=I DON'T WANNA
TTITLE19=I LOVE YOU HONEY
TTITLE20=LIFE'S RAILWAY TO HEAVEN
TTITLE21=THAT WONDERFUL SOMEONE
EXTD=
EXTT0=
EXTT1=
EXTT2=
EXTT3=
EXTT4=
EXTT5=
EXTT6=
EXTT7=
EXTT8=
EXTT9=
EXTT10=
EXTT11=
EXTT12=
EXTT13=
EXTT14=
EXTT15=
EXTT16=
EXTT17=
EXTT18=
EXTT19=
EXTT20=
EXTT21=
PLAYORDER=
